<svg width="124" height="55" viewBox="0 0 124 55" fill="none" xmlns="http://www.w3.org/2000/svg">
<path d="M5.95 47.25C4.68333 47.25 3.78333 46.5833 3.25 45.25C2.75 43.9167 2.5 41.7833 2.5 38.85C2.5 34.5167 3.11667 30.4 4.35 26.5C4.65 25.5333 5.13333 24.8333 5.8 24.4C6.5 23.9333 7.46667 23.7 8.7 23.7C9.36667 23.7 9.83333 23.7833 10.1 23.95C10.3667 24.1167 10.5 24.4333 10.5 24.9C10.5 25.4333 10.25 26.6333 9.75 28.5C9.41667 29.8333 9.15 31 8.95 32C8.75 32.9667 8.58333 34.1833 8.45 35.65C9.35 33.05 10.4167 30.85 11.65 29.05C12.9167 27.25 14.2 25.9167 15.5 25.05C16.8333 24.15 18.0833 23.7 19.25 23.7C20.4167 23.7 21.2333 23.9667 21.7 24.5C22.2 25.0333 22.45 25.85 22.45 26.95C22.45 28.0167 22.1333 29.95 21.5 32.75C21.2333 33.95 21.05 34.85 20.95 35.45C22.6167 31.35 24.4667 28.3667 26.5 26.5C28.5333 24.6333 30.4333 23.7 32.2 23.7C34.3667 23.7 35.45 24.7833 35.45 26.95C35.45 28.25 35.0833 30.6 34.35 34C33.7167 36.9 33.4 38.8167 33.4 39.75C33.4 41.0833 33.8833 41.75 34.85 41.75C35.5167 41.75 36.3 41.35 37.2 40.55C38.1333 39.7167 39.3667 38.3833 40.9 36.55C41.3 36.0833 41.75 35.85 42.25 35.85C42.6833 35.85 43.0167 36.05 43.25 36.45C43.5167 36.85 43.65 37.4 43.65 38.1C43.65 39.4333 43.3333 40.4667 42.7 41.2C41.2667 42.9667 39.7167 44.4167 38.05 45.55C36.4167 46.6833 34.55 47.25 32.45 47.25C30.75 47.25 29.4667 46.7667 28.6 45.8C27.7333 44.8 27.3 43.3667 27.3 41.5C27.3 40.5667 27.5333 38.9 28 36.5C28.4333 34.4 28.65 32.95 28.65 32.15C28.65 31.6167 28.4667 31.35 28.1 31.35C27.6667 31.35 27.05 31.9167 26.25 33.05C25.45 34.15 24.65 35.6167 23.85 37.45C23.05 39.2833 22.4 41.2167 21.9 43.25C21.5333 44.85 21.1 45.9167 20.6 46.45C20.1333 46.9833 19.3667 47.25 18.3 47.25C17.2 47.25 16.3667 46.7333 15.8 45.7C15.2667 44.6333 15 43.35 15 41.85C15 40.5833 15.1667 38.75 15.5 36.35C15.7667 34.2167 15.9 32.8167 15.9 32.15C15.9 31.6167 15.7167 31.35 15.35 31.35C14.85 31.35 14.2167 31.95 13.45 33.15C12.6833 34.35 11.9333 35.8833 11.2 37.75C10.5 39.6167 9.93333 41.45 9.5 43.25C9.13333 44.8167 8.7 45.8833 8.2 46.45C7.73333 46.9833 6.98333 47.25 5.95 47.25Z" fill="#4A5568"/>
<path d="M46.157 20.4C44.757 20.4 43.707 20.0833 43.007 19.45C42.307 18.7833 41.957 17.8667 41.957 16.7C41.957 15.5333 42.407 14.5667 43.307 13.8C44.2404 13 45.3904 12.6 46.757 12.6C47.9904 12.6 48.9904 12.9 49.757 13.5C50.5237 14.1 50.907 14.95 50.907 16.05C50.907 17.3833 50.4737 18.45 49.607 19.25C48.7404 20.0167 47.5904 20.4 46.157 20.4ZM45.757 47.25C43.5904 47.25 42.007 46.4833 41.007 44.95C40.0404 43.4167 39.557 41.3833 39.557 38.85C39.557 37.35 39.7404 35.4333 40.107 33.1C40.507 30.7333 41.007 28.5333 41.607 26.5C41.907 25.4333 42.307 24.7 42.807 24.3C43.307 23.9 44.107 23.7 45.207 23.7C46.907 23.7 47.757 24.2667 47.757 25.4C47.757 26.2333 47.4404 28.1667 46.807 31.2C46.007 34.8667 45.607 37.35 45.607 38.65C45.607 39.65 45.7404 40.4167 46.007 40.95C46.2737 41.4833 46.7237 41.75 47.357 41.75C47.957 41.75 48.707 41.3333 49.607 40.5C50.507 39.6667 51.707 38.35 53.207 36.55C53.607 36.0833 54.057 35.85 54.557 35.85C54.9904 35.85 55.3237 36.05 55.557 36.45C55.8237 36.85 55.957 37.4 55.957 38.1C55.957 39.4333 55.6404 40.4667 55.007 41.2C51.707 45.2333 48.6237 47.25 45.757 47.25Z" fill="#4A5568"/>
<path d="M61.2117 48.35C59.4784 48.35 58.1451 47.95 57.2117 47.15C56.3117 46.35 55.8617 45.45 55.8617 44.45C55.8617 43.5833 56.1784 42.8333 56.8117 42.2C57.4451 41.5667 58.3784 41.25 59.6117 41.25C60.0451 41.25 60.5451 41.3 61.1117 41.4C61.7117 41.4667 62.1617 41.5167 62.4617 41.55C62.4284 40.6833 62.2284 39.8667 61.8617 39.1C61.5284 38.3333 61.0951 37.6 60.5617 36.9C60.0284 36.1667 59.5284 35.5333 59.0617 35C58.0284 36.9667 56.9951 38.6 55.9617 39.9C54.9617 41.2 53.8617 42.4333 52.6617 43.6C52.0617 44.2 51.4284 44.5 50.7617 44.5C50.2284 44.5 49.7951 44.3167 49.4617 43.95C49.1284 43.55 48.9617 43.0667 48.9617 42.5C48.9617 41.8333 49.1951 41.2167 49.6617 40.65L50.3117 39.85C52.1451 37.5833 53.5284 35.7167 54.4617 34.25C55.0284 33.2833 55.6951 32 56.4617 30.4C57.2284 28.7667 57.9784 27.0833 58.7117 25.35C59.3451 23.8833 60.6617 23.15 62.6617 23.15C63.5951 23.15 64.2451 23.2333 64.6117 23.4C64.9784 23.5667 65.1617 23.8333 65.1617 24.2C65.1617 24.4 65.095 24.7167 64.9617 25.15C64.8284 25.5833 64.6451 26.0167 64.4117 26.45C63.8117 27.65 63.5117 28.6667 63.5117 29.5C63.5117 30 63.6784 30.55 64.0117 31.15C64.3784 31.75 64.9284 32.5 65.6617 33.4C66.7284 34.8 67.5284 36 68.0617 37C68.6284 37.9667 68.9117 39.0333 68.9117 40.2C68.9117 40.5333 68.8784 41 68.8117 41.6C70.4451 40.9667 72.3617 39.2833 74.5617 36.55C74.9617 36.0833 75.4117 35.85 75.9117 35.85C76.3451 35.85 76.6784 36.05 76.9117 36.45C77.1784 36.85 77.3117 37.4 77.3117 38.1C77.3117 39.3667 76.9951 40.4 76.3617 41.2C74.6951 43.2667 73.0951 44.6833 71.5617 45.45C70.0617 46.1833 68.1951 46.5833 65.9617 46.65C64.6284 47.7833 63.0451 48.35 61.2117 48.35Z" fill="#4A5568"/>
<path d="M79.7996 20.4C78.3996 20.4 77.3496 20.0833 76.6496 19.45C75.9496 18.7833 75.5996 17.8667 75.5996 16.7C75.5996 15.5333 76.0496 14.5667 76.9496 13.8C77.8829 13 79.0329 12.6 80.3996 12.6C81.6329 12.6 82.6329 12.9 83.3996 13.5C84.1663 14.1 84.5496 14.95 84.5496 16.05C84.5496 17.3833 84.1163 18.45 83.2496 19.25C82.3829 20.0167 81.2329 20.4 79.7996 20.4ZM79.3996 47.25C77.2329 47.25 75.6496 46.4833 74.6496 44.95C73.6829 43.4167 73.1996 41.3833 73.1996 38.85C73.1996 37.35 73.3829 35.4333 73.7496 33.1C74.1496 30.7333 74.6496 28.5333 75.2496 26.5C75.5496 25.4333 75.9496 24.7 76.4496 24.3C76.9496 23.9 77.7496 23.7 78.8496 23.7C80.5496 23.7 81.3996 24.2667 81.3996 25.4C81.3996 26.2333 81.0829 28.1667 80.4496 31.2C79.6496 34.8667 79.2496 37.35 79.2496 38.65C79.2496 39.65 79.3829 40.4167 79.6496 40.95C79.9163 41.4833 80.3663 41.75 80.9996 41.75C81.5996 41.75 82.3496 41.3333 83.2496 40.5C84.1496 39.6667 85.3496 38.35 86.8496 36.55C87.2496 36.0833 87.6996 35.85 88.1996 35.85C88.6329 35.85 88.9663 36.05 89.1996 36.45C89.4663 36.85 89.5996 37.4 89.5996 38.1C89.5996 39.4333 89.2829 40.4667 88.6496 41.2C85.3496 45.2333 82.2663 47.25 79.3996 47.25Z" fill="#4A5568"/>
<path d="M114.454 35.85C114.888 35.85 115.221 36.05 115.454 36.45C115.721 36.85 115.854 37.4 115.854 38.1C115.854 39.4333 115.538 40.4667 114.904 41.2C113.404 43.0333 111.888 44.5 110.354 45.6C108.821 46.7 107.004 47.25 104.904 47.25C102.338 47.25 100.271 46.5167 98.7043 45.05C97.1376 43.5833 96.3543 41.6333 96.3543 39.2C96.3543 37.9 97.021 36.9667 98.3543 36.4C99.821 35.7667 100.871 35.1 101.504 34.4C102.138 33.6667 102.454 32.7833 102.454 31.75C102.454 31.15 102.321 30.7 102.054 30.4C101.821 30.1 101.521 29.95 101.154 29.95C100.254 29.95 99.2543 30.6 98.1543 31.9C97.0876 33.2 96.0876 34.8833 95.1543 36.95C94.221 38.9833 93.4876 41.0833 92.9543 43.25C92.5876 44.8167 92.1543 45.8833 91.6543 46.45C91.1876 46.9833 90.4376 47.25 89.4043 47.25C88.371 47.25 87.6043 46.8833 87.1043 46.15C86.6376 45.3833 86.321 44.2167 86.1543 42.65C85.9876 41.0833 85.9043 38.7833 85.9043 35.75C85.9043 30.6167 86.421 25.2667 87.4543 19.7C88.521 14.1333 90.071 9.46667 92.1043 5.7C94.171 1.9 96.6376 0 99.5043 0C101.038 0 102.271 0.666667 103.204 2C104.171 3.3 104.654 5 104.654 7.1C104.654 10.4667 103.671 13.9667 101.704 17.6C99.7376 21.2 96.5376 25.4167 92.1043 30.25C92.0043 31.9833 91.9543 33.7667 91.9543 35.6C93.5543 31.4333 95.3876 28.4167 97.4543 26.55C99.521 24.65 101.454 23.7 103.254 23.7C104.921 23.7 106.254 24.2667 107.254 25.4C108.288 26.5333 108.804 27.9333 108.804 29.6C108.804 31.4333 108.338 33.1167 107.404 34.65C106.471 36.1833 104.871 37.55 102.604 38.75C102.738 39.65 103.138 40.3833 103.804 40.95C104.504 41.4833 105.338 41.75 106.304 41.75C107.338 41.75 108.338 41.35 109.304 40.55C110.271 39.75 111.538 38.4167 113.104 36.55C113.504 36.0833 113.954 35.85 114.454 35.85ZM98.4543 4.95C97.8543 4.95 97.1876 5.81667 96.4543 7.55C95.721 9.25 95.0043 11.5667 94.3043 14.5C93.6376 17.4 93.0876 20.5667 92.6543 24C94.721 21.5667 96.421 18.9167 97.7543 16.05C99.121 13.1833 99.8043 10.5833 99.8043 8.25C99.8043 7.18333 99.6876 6.36667 99.4543 5.8C99.221 5.23333 98.8876 4.95 98.4543 4.95Z" fill="#4A5568"/>
<path d="M118.724 20.4C117.324 20.4 116.274 20.0833 115.574 19.45C114.874 18.7833 114.524 17.8667 114.524 16.7C114.524 15.5333 114.974 14.5667 115.874 13.8C116.807 13 117.957 12.6 119.324 12.6C120.557 12.6 121.557 12.9 122.324 13.5C123.09 14.1 123.474 14.95 123.474 16.05C123.474 17.3833 123.04 18.45 122.174 19.25C121.307 20.0167 120.157 20.4 118.724 20.4ZM113.924 47.25C112.857 47.25 112.124 47.0333 111.724 46.6C111.324 46.1667 111.124 45.4833 111.124 44.55C111.124 44.2833 111.157 43.8167 111.224 43.15C111.757 37.05 112.64 31.5 113.874 26.5C114.14 25.4667 114.574 24.75 115.174 24.35C115.807 23.9167 116.807 23.7 118.174 23.7C119.607 23.7 120.324 24.2833 120.324 25.45C120.324 25.6167 120.29 25.9333 120.224 26.4C118.724 33.5333 117.824 39.5167 117.524 44.35C117.457 45.4167 117.14 46.1667 116.574 46.6C116.007 47.0333 115.124 47.25 113.924 47.25Z" fill="#4A5568"/>
<path d="M0 52H120.524V54.5H0V52Z" fill="#4A5568"/>
</svg>
